<?xml version="1.0" encoding="UTF-8" standalone="no"?>
<svg
   xmlns:dc="http://purl.org/dc/elements/1.1/"
   xmlns:cc="http://creativecommons.org/ns#"
   xmlns:rdf="http://www.w3.org/1999/02/22-rdf-syntax-ns#"
   xmlns:svg="http://www.w3.org/2000/svg"
   xmlns="http://www.w3.org/2000/svg"
   xmlns:sodipodi="http://sodipodi.sourceforge.net/DTD/sodipodi-0.dtd"
   xmlns:inkscape="http://www.inkscape.org/namespaces/inkscape"
   sodipodi:docname="2.svg"
   inkscape:version="1.0 (4035a4fb49, 2020-05-01)"
   id="svg1465"
   version="1.1"
   viewBox="0 0 6.3499999 6.3116398"
   height="6.3116398mm"
   width="6.3499999mm">
  <defs
     id="defs1459" />
  <sodipodi:namedview
     inkscape:window-maximized="0"
     inkscape:window-y="0"
     inkscape:window-x="104"
     inkscape:window-height="1045"
     inkscape:window-width="1513"
     showgrid="false"
     inkscape:document-rotation="0"
     inkscape:current-layer="layer1"
     inkscape:document-units="mm"
     inkscape:cy="-25.215357"
     inkscape:cx="137.71428"
     inkscape:zoom="0.35"
     inkscape:pageshadow="2"
     inkscape:pageopacity="0.0"
     borderopacity="1.0"
     bordercolor="#666666"
     pagecolor="#ffffff"
     id="base" />
  <metadata
     id="metadata1462">
    <rdf:RDF>
      <cc:Work
         rdf:about="">
        <dc:format>image/svg+xml</dc:format>
        <dc:type
           rdf:resource="http://purl.org/dc/dcmitype/StillImage" />
        <dc:title></dc:title>
      </cc:Work>
    </rdf:RDF>
  </metadata>
  <g
     transform="translate(-69.396429,-154.83823)"
     id="layer1"
     inkscape:groupmode="layer"
     inkscape:label="Слой 1">
    <path
       style="stroke-width:0.264583"
       d="m 75.746429,158.01323 c 0,-1.75366 -1.421316,-3.175 -3.175,-3.175 -1.753685,0 -3.175,1.42134 -3.175,3.175 0,1.58512 1.160859,2.89851 2.678906,3.13664 v -2.2188 h -0.806159 v -0.91784 h 0.806159 v -0.69956 c 0,-0.7956 0.473763,-1.23507 1.199303,-1.23507 0.347266,0 0.710671,0.0619 0.710671,0.0619 v 0.78131 h -0.400606 c -0.394388,0 -0.517181,0.24501 -0.517181,0.4961 v 0.59531 h 0.88056 l -0.140758,0.91784 h -0.739802 v 2.2188 c 1.518047,-0.23813 2.678907,-1.55152 2.678907,-3.13664 z"
       fill="#ffffff"
       id="path6" />
  </g>
</svg>
