<?xml version="1.0" encoding="UTF-8" standalone="no"?>
<svg
   xmlns:dc="http://purl.org/dc/elements/1.1/"
   xmlns:cc="http://creativecommons.org/ns#"
   xmlns:rdf="http://www.w3.org/1999/02/22-rdf-syntax-ns#"
   xmlns:svg="http://www.w3.org/2000/svg"
   xmlns="http://www.w3.org/2000/svg"
   xmlns:sodipodi="http://sodipodi.sourceforge.net/DTD/sodipodi-0.dtd"
   xmlns:inkscape="http://www.inkscape.org/namespaces/inkscape"
   sodipodi:docname="phone.svg"
   inkscape:version="1.0 (4035a4fb49, 2020-05-01)"
   id="svg1499"
   version="1.1"
   viewBox="0 0 3.3953109 3.393286"
   height="3.393286mm"
   width="3.3953109mm">
  <defs
     id="defs1493">
    <linearGradient
       gradientTransform="matrix(0.26458333,0,0,0.26458333,103.87683,42.134523)"
       id="paint2_linear"
       x1="30.5833"
       y1="87.482803"
       x2="43.416698"
       y2="87.482803"
       gradientUnits="userSpaceOnUse">
      <stop
         stop-color="#FF1500"
         id="stop30" />
      <stop
         offset="1"
         stop-color="#FE7000"
         id="stop32" />
    </linearGradient>
  </defs>
  <sodipodi:namedview
     inkscape:window-maximized="0"
     inkscape:window-y="0"
     inkscape:window-x="182"
     inkscape:window-height="1050"
     inkscape:window-width="1513"
     showgrid="false"
     inkscape:document-rotation="0"
     inkscape:current-layer="layer1"
     inkscape:document-units="mm"
     inkscape:cy="3.286537"
     inkscape:cx="2.8533619"
     inkscape:zoom="11.2"
     inkscape:pageshadow="2"
     inkscape:pageopacity="0.0"
     borderopacity="1.0"
     bordercolor="#666666"
     pagecolor="#ffffff"
     id="base" />
  <metadata
     id="metadata1496">
    <rdf:RDF>
      <cc:Work
         rdf:about="">
        <dc:format>image/svg+xml</dc:format>
        <dc:type
           rdf:resource="http://purl.org/dc/dcmitype/StillImage" />
        <dc:title></dc:title>
      </cc:Work>
    </rdf:RDF>
  </metadata>
  <g
     transform="translate(-111.96874,-63.720094)"
     id="layer1"
     inkscape:groupmode="layer"
     inkscape:label="Слой 1">
    <path
       style="fill:url(#paint2_linear);stroke-width:0.264583"
       fill-rule="evenodd"
       clip-rule="evenodd"
       d="m 115.36252,66.397978 c 0.007,0.05519 -0.01,0.103029 -0.0503,0.143934 l -0.47802,0.474318 c -0.0215,0.02408 -0.0497,0.04429 -0.0844,0.06128 -0.0348,0.01667 -0.0689,0.02746 -0.10247,0.03217 -0.002,0 -0.01,6.09e-4 -0.0215,0.0019 -0.012,0.0012 -0.0276,0.0018 -0.0468,0.0018 -0.0455,0 -0.11914,-0.0078 -0.22101,-0.02347 -0.10186,-0.0155 -0.22646,-0.05389 -0.3738,-0.11501 -0.14748,-0.06112 -0.31459,-0.152796 -0.50149,-0.274875 -0.1869,-0.122238 -0.3859,-0.289957 -0.59672,-0.503291 -0.16772,-0.165338 -0.30678,-0.323585 -0.41706,-0.474477 -0.11012,-0.151024 -0.19886,-0.290539 -0.26588,-0.418809 -0.0672,-0.128138 -0.1175,-0.244343 -0.15102,-0.348562 -0.0335,-0.104219 -0.0562,-0.194125 -0.0684,-0.269716 -0.012,-0.07543 -0.0167,-0.134779 -0.0143,-0.177906 0.002,-0.04323 0.004,-0.06715 0.004,-0.07189 0.005,-0.03352 0.0155,-0.0676 0.0323,-0.102315 0.0167,-0.03482 0.0371,-0.06302 0.061,-0.08459 l 0.47818,-0.478155 c 0.0335,-0.03336 0.0719,-0.05022 0.11502,-0.05022 0.0311,0 0.0587,0.009 0.0827,0.02704 0.0241,0.01786 0.0443,0.04001 0.0611,0.06641 l 0.38457,0.729747 c 0.0217,0.03823 0.0276,0.08017 0.018,0.125783 -0.01,0.04561 -0.03,0.08369 -0.0611,0.114988 l -0.17611,0.176133 c -0.005,0.0049 -0.009,0.0127 -0.0126,0.02334 -0.004,0.01077 -0.005,0.01992 -0.005,0.02701 0.01,0.05019 0.0311,0.107765 0.0648,0.172561 0.0287,0.05744 0.0731,0.127556 0.13288,0.210238 0.0599,0.08266 0.14496,0.17788 0.25524,0.285803 0.10779,0.110146 0.20373,0.195898 0.2876,0.257016 0.0838,0.06099 0.15396,0.106019 0.21037,0.134647 0.0562,0.02879 0.0994,0.04636 0.1293,0.05226 l 0.0449,0.0089 c 0.005,0 0.0127,-0.0016 0.0233,-0.0053 0.0109,-0.0036 0.0186,-0.0078 0.0235,-0.01254 l 0.20492,-0.208592 c 0.0431,-0.03823 0.0934,-0.05744 0.15089,-0.05744 0.0408,0 0.0731,0.0071 0.097,0.02156 h 0.004 l 0.69372,0.409681 c 0.0504,0.03127 0.0803,0.07086 0.0899,0.118692 z"
       fill="url(#paint2_linear)"
       id="path14" />
  </g>
</svg>
