<?xml version="1.0" encoding="UTF-8" standalone="no"?>
<svg
   xmlns:dc="http://purl.org/dc/elements/1.1/"
   xmlns:cc="http://creativecommons.org/ns#"
   xmlns:rdf="http://www.w3.org/1999/02/22-rdf-syntax-ns#"
   xmlns:svg="http://www.w3.org/2000/svg"
   xmlns="http://www.w3.org/2000/svg"
   xmlns:sodipodi="http://sodipodi.sourceforge.net/DTD/sodipodi-0.dtd"
   xmlns:inkscape="http://www.inkscape.org/namespaces/inkscape"
   sodipodi:docname="1.svg"
   inkscape:version="1.0 (4035a4fb49, 2020-05-01)"
   id="svg879"
   version="1.1"
   viewBox="0 0 6.3499999 6.3499999"
   height="6.3499999mm"
   width="6.3499999mm">
  <defs
     id="defs873" />
  <sodipodi:namedview
     inkscape:window-maximized="0"
     inkscape:window-y="0"
     inkscape:window-x="78"
     inkscape:window-height="1045"
     inkscape:window-width="1513"
     showgrid="false"
     inkscape:document-rotation="0"
     inkscape:current-layer="layer1"
     inkscape:document-units="mm"
     inkscape:cy="-588.00001"
     inkscape:cx="629.14286"
     inkscape:zoom="0.35"
     inkscape:pageshadow="2"
     inkscape:pageopacity="0.0"
     borderopacity="1.0"
     bordercolor="#666666"
     pagecolor="#ffffff"
     id="base" />
  <metadata
     id="metadata876">
    <rdf:RDF>
      <cc:Work
         rdf:about="">
        <dc:format>image/svg+xml</dc:format>
        <dc:type
           rdf:resource="http://purl.org/dc/dcmitype/StillImage" />
        <dc:title></dc:title>
      </cc:Work>
    </rdf:RDF>
  </metadata>
  <g
     transform="translate(60.627381,-303.74167)"
     id="layer1"
     inkscape:groupmode="layer"
     inkscape:label="Слой 1">
    <path
       style="stroke-width:0.264583"
       fill-rule="evenodd"
       clip-rule="evenodd"
       d="m -57.452381,303.74167 c -1.7535,0 -3.175,1.4216 -3.175,3.175 0,1.75339 1.4215,3.175 3.175,3.175 1.7535,0 3.175,-1.42161 3.175,-3.175 0,-1.7534 -1.4215,-3.175 -3.175,-3.175 z m 1.658779,2.8321 c 0.02289,0.11139 0.03455,0.22595 0.03455,0.34052 0,0.11456 -0.01167,0.22886 -0.03455,0.34051 -0.02233,0.10875 -0.0554,0.21564 -0.09874,0.31777 -0.04233,0.10028 -0.09483,0.19685 -0.156184,0.28707 -0.06043,0.0897 -0.130069,0.17357 -0.20656,0.2503 -0.07665,0.0762 -0.160972,0.14578 -0.250534,0.20637 -0.09046,0.0609 -0.187272,0.11324 -0.287655,0.15584 -0.102288,0.0431 -0.209365,0.0762 -0.318108,0.0984 -0.111628,0.023 -0.226378,0.0347 -0.341075,0.0347 -0.114776,0 -0.229526,-0.0116 -0.340995,-0.0347 -0.108902,-0.0222 -0.215979,-0.0553 -0.318187,-0.0984 -0.100383,-0.0426 -0.197274,-0.095 -0.287735,-0.15584 -0.08956,-0.0606 -0.173884,-0.13017 -0.250375,-0.20637 -0.07657,-0.0767 -0.146209,-0.1606 -0.206719,-0.2503 -0.06104,-0.0902 -0.113612,-0.18679 -0.156104,-0.28707 -0.04334,-0.10213 -0.07649,-0.20902 -0.0989,-0.31777 -0.02265,-0.11165 -0.03424,-0.22595 -0.03424,-0.34051 0,-0.11457 0.01156,-0.22913 0.03424,-0.34052 0.02241,-0.10875 0.05556,-0.21564 0.0989,-0.31777 0.04249,-0.10028 0.09509,-0.19711 0.156104,-0.28734 0.06054,-0.0897 0.130148,-0.17356 0.206719,-0.25029 0.07649,-0.0762 0.160814,-0.14552 0.250375,-0.20611 0.09046,-0.0611 0.187378,-0.11351 0.287761,-0.15611 0.102182,-0.0431 0.209259,-0.0765 0.318161,-0.0984 0.111469,-0.0227 0.226246,-0.0344 0.340995,-0.0344 0.114697,0 0.229447,0.0117 0.341075,0.0344 0.108743,0.022 0.21582,0.0553 0.318108,0.0984 0.100383,0.0426 0.197194,0.095 0.287655,0.15611 0.08956,0.0606 0.173911,0.12991 0.250561,0.20611 0.07646,0.0767 0.146103,0.1606 0.206533,0.25029 0.06136,0.0902 0.113851,0.18706 0.156184,0.28734 0.04334,0.10213 0.07641,0.20902 0.09874,0.31777 z"
       fill="#ffffff"
       id="path2" />
    <path
       style="stroke-width:0.264583"
       fill-rule="evenodd"
       clip-rule="evenodd"
       d="m -56.497553,305.83082 1.33e-4,-2.7e-4 c -0.254609,-0.2241 -0.58891,-0.3601 -0.95504,-0.3601 -0.117502,0 -0.231511,0.014 -0.340757,0.0405 l 0.0023,0.003 c 0.03424,0.0458 0.297762,0.39819 0.538268,0.83899 0.541184,-0.2024 0.74822,-0.51223 0.755046,-0.52228 z m 0.161793,0.16642 c -0.0056,0.008 -0.238257,0.33972 -0.80555,0.57123 0.03358,0.0688 0.06607,0.13891 0.0961,0.20929 0.01066,0.0251 0.02109,0.05 0.03125,0.0749 0.487256,-0.0614 0.967449,0.0386 1.005416,0.0466 l 0.0017,2.7e-4 c -0.0033,-0.34237 -0.125912,-0.65643 -0.328821,-0.9025 z m -0.590074,1.0832 c 0.18968,0.52044 0.266753,0.9443 0.281491,1.03135 0.324696,-0.21881 0.555307,-0.56621 0.619627,-0.96864 -0.02977,-0.01 -0.43434,-0.13732 -0.901118,-0.0627 z m -0.270959,0.0669 c 0.203491,0.52811 0.287496,0.97023 0.308927,1.09644 -0.173567,0.0738 -0.364331,0.11456 -0.564594,0.11456 -0.33536,0 -0.643308,-0.11509 -0.888789,-0.30586 0.003,-0.006 0.281649,-0.6051 1.134878,-0.90196 0.002,-8e-4 0.004,-10e-4 0.0061,-0.002 v 0 z m -0.2159,-0.48471 c 0.04143,0.081 0.08104,0.16324 0.117342,0.24527 -0.01902,0.006 -0.03821,0.0111 -0.05704,0.0175 -0.780415,0.25188 -1.176152,0.95303 -1.175649,0.95382 -0.230373,-0.25585 -0.370523,-0.59399 -0.370523,-0.96493 0,-0.0106 3.44e-4,-0.0212 7.14e-4,-0.0317 l 4.5e-4,-0.0143 c 0.02564,10e-4 0.740119,0.0169 1.48471,-0.20558 z m -0.119804,-0.22225 c -0.250296,-0.44424 -0.51771,-0.80645 -0.536972,-0.83212 -0.403251,0.18997 -0.704241,0.56118 -0.798089,1.00833 h 0.0014 c 0.04942,5.3e-4 0.646668,0.006 1.333685,-0.17621 z"
       fill="#ffffff"
       id="path4" />
  </g>
</svg>
