<?xml version="1.0" encoding="UTF-8" standalone="no"?>
<svg
   xmlns:dc="http://purl.org/dc/elements/1.1/"
   xmlns:cc="http://creativecommons.org/ns#"
   xmlns:rdf="http://www.w3.org/1999/02/22-rdf-syntax-ns#"
   xmlns:svg="http://www.w3.org/2000/svg"
   xmlns="http://www.w3.org/2000/svg"
   xmlns:sodipodi="http://sodipodi.sourceforge.net/DTD/sodipodi-0.dtd"
   xmlns:inkscape="http://www.inkscape.org/namespaces/inkscape"
   sodipodi:docname="3.svg"
   inkscape:version="1.0 (4035a4fb49, 2020-05-01)"
   id="svg2050"
   version="1.1"
   viewBox="0 0 6.3499999 6.3499999"
   height="6.3499999mm"
   width="6.3499999mm">
  <defs
     id="defs2044" />
  <sodipodi:namedview
     inkscape:window-maximized="0"
     inkscape:window-y="0"
     inkscape:window-x="130"
     inkscape:window-height="1045"
     inkscape:window-width="1513"
     showgrid="false"
     inkscape:document-rotation="0"
     inkscape:current-layer="layer1"
     inkscape:document-units="mm"
     inkscape:cy="-148"
     inkscape:cx="-296.57143"
     inkscape:zoom="0.35"
     inkscape:pageshadow="2"
     inkscape:pageopacity="0.0"
     borderopacity="1.0"
     bordercolor="#666666"
     pagecolor="#ffffff"
     id="base" />
  <metadata
     id="metadata2047">
    <rdf:RDF>
      <cc:Work
         rdf:about="">
        <dc:format>image/svg+xml</dc:format>
        <dc:type
           rdf:resource="http://purl.org/dc/dcmitype/StillImage" />
        <dc:title></dc:title>
      </cc:Work>
    </rdf:RDF>
  </metadata>
  <g
     transform="translate(-184.30119,-187.325)"
     id="layer1"
     inkscape:groupmode="layer"
     inkscape:label="Слой 1">
    <path
       style="stroke-width:0.264583"
       fill-rule="evenodd"
       clip-rule="evenodd"
       d="m 187.47619,187.325 c -1.75339,0 -3.175,1.42161 -3.175,3.175 0,1.75339 1.42161,3.175 3.175,3.175 1.75339,0 3.175,-1.42161 3.175,-3.175 0,-1.75339 -1.42161,-3.175 -3.175,-3.175 z m 1.36763,2.46989 h -0.89694 v -0.25692 h 0.89694 z m -0.0791,0.21563 c -0.10795,-0.0476 -0.22913,-0.0717 -0.36406,-0.0717 -0.22675,0 -0.4109,0.0709 -0.55325,0.21193 -0.14208,0.14102 -0.21299,0.34396 -0.21299,0.60854 0,0.28231 0.0783,0.48604 0.23627,0.61119 0.15717,0.12541 0.33894,0.18785 0.54505,0.18785 0.2495,0 0.44344,-0.0743 0.58208,-0.22251 0.0889,-0.0937 0.13917,-0.18574 0.15002,-0.27596 h -0.41328 c -0.0238,0.0447 -0.0516,0.0796 -0.0834,0.10504 -0.0574,0.0466 -0.13255,0.0699 -0.22436,0.0699 -0.0873,0 -0.1614,-0.0193 -0.22331,-0.0574 -0.10186,-0.0616 -0.15531,-0.16907 -0.16192,-0.32199 h 1.12765 c 0.002,-0.13177 -0.003,-0.23337 -0.0138,-0.30322 -0.0185,-0.11959 -0.0595,-0.22489 -0.12356,-0.31565 -0.0701,-0.10292 -0.15901,-0.17832 -0.26723,-0.22595 z m -1.97062,-0.56885 c 0.25533,0.004 0.43604,0.077 0.5424,0.22013 0.064,0.0876 0.096,0.19262 0.096,0.31485 0,0.12595 -0.032,0.22755 -0.0968,0.30427 -0.0362,0.0429 -0.0892,0.082 -0.15955,0.11748 0.10663,0.0384 0.18706,0.0992 0.24183,0.1823 0.0542,0.0828 0.0815,0.18388 0.0815,0.30242 0,0.1225 -0.0309,0.2323 -0.0934,0.3294 -0.0394,0.064 -0.0889,0.11827 -0.14817,0.16246 -0.0667,0.0503 -0.14526,0.0847 -0.23627,0.10371 -0.091,0.0185 -0.18944,0.0275 -0.29581,0.0275 h -0.94297 v -2.06454 z"
       fill="#ffffff"
       id="path8" />
    <path
       style="stroke-width:0.264583"
       fill-rule="evenodd"
       clip-rule="evenodd"
       d="m 186.20011,189.80018 h 0.45561 c 0.10001,0 0.18256,0.0108 0.24738,0.0323 0.0749,0.0309 0.11245,0.0944 0.11245,0.19076 0,0.0865 -0.0286,0.14711 -0.0852,0.18124 -0.0569,0.0341 -0.1307,0.0513 -0.22145,0.0513 h -0.50879 z m 1.95923,0.55536 c 0.0572,-0.0582 0.13812,-0.0873 0.24157,-0.0873 0.0955,0 0.17542,0.0273 0.24024,0.0823 0.0643,0.055 0.10054,0.1352 0.10795,0.2413 h -0.69771 c 0.0148,-0.0995 0.0508,-0.17806 0.10795,-0.23627 z m -1.44409,0.24183 h -0.51514 v 0.55059 h 0.508 c 0.0907,0 0.16166,-0.0122 0.21219,-0.0362 0.0918,-0.0452 0.13758,-0.13097 0.13758,-0.25797 0,-0.10742 -0.0442,-0.18124 -0.13335,-0.22146 -0.0497,-0.0225 -0.11959,-0.0341 -0.20928,-0.0349 z"
       fill="#ffffff"
       id="path10" />
  </g>
</svg>
