<?xml version="1.0" encoding="UTF-8" standalone="no"?>
<svg
   xmlns:dc="http://purl.org/dc/elements/1.1/"
   xmlns:cc="http://creativecommons.org/ns#"
   xmlns:rdf="http://www.w3.org/1999/02/22-rdf-syntax-ns#"
   xmlns:svg="http://www.w3.org/2000/svg"
   xmlns="http://www.w3.org/2000/svg"
   xmlns:sodipodi="http://sodipodi.sourceforge.net/DTD/sodipodi-0.dtd"
   xmlns:inkscape="http://www.inkscape.org/namespaces/inkscape"
   sodipodi:docname="4.svg"
   inkscape:version="1.0 (4035a4fb49, 2020-05-01)"
   id="svg2636"
   version="1.1"
   viewBox="0 0 6.3499999 6.3499999"
   height="6.3499999mm"
   width="6.3499999mm">
  <defs
     id="defs2630" />
  <sodipodi:namedview
     inkscape:window-maximized="0"
     inkscape:window-y="0"
     inkscape:window-x="156"
     inkscape:window-height="1045"
     inkscape:window-width="1513"
     showgrid="false"
     inkscape:document-rotation="0"
     inkscape:current-layer="layer1"
     inkscape:document-units="mm"
     inkscape:cy="320.57143"
     inkscape:cx="103.42857"
     inkscape:zoom="0.35"
     inkscape:pageshadow="2"
     inkscape:pageopacity="0.0"
     borderopacity="1.0"
     bordercolor="#666666"
     pagecolor="#ffffff"
     id="base" />
  <metadata
     id="metadata2633">
    <rdf:RDF>
      <cc:Work
         rdf:about="">
        <dc:format>image/svg+xml</dc:format>
        <dc:type
           rdf:resource="http://purl.org/dc/dcmitype/StillImage" />
        <dc:title></dc:title>
      </cc:Work>
    </rdf:RDF>
  </metadata>
  <g
     transform="translate(-78.467857,-63.34881)"
     id="layer1"
     inkscape:groupmode="layer"
     inkscape:label="Слой 1">
    <path
       style="stroke-width:0.264583"
       fill-rule="evenodd"
       clip-rule="evenodd"
       d="m 81.642857,63.34881 c -1.753394,0 -3.175,1.421606 -3.175,3.175 0,1.753393 1.421606,3.175 3.175,3.175 1.753394,0 3.175,-1.421607 3.175,-3.175 0,-1.753394 -1.421606,-3.175 -3.175,-3.175 z m -1.650735,2.629693 h 0.719402 v 2.161911 h -0.719402 z m 0.766762,-0.668866 c -0.0045,-0.211932 -0.156104,-0.373327 -0.402166,-0.373327 -0.246328,0 -0.407194,0.161395 -0.407194,0.373327 0,0.207698 0.156104,0.373856 0.397669,0.373856 h 0.0048 c 0.250825,0 0.406929,-0.166158 0.406929,-0.373856 z m 1.719263,0.618066 c 0.473339,0 0.82841,0.309034 0.82841,0.973138 v 1.239573 H 82.58689 v -1.156759 c 0,-0.290512 -0.103981,-0.488685 -0.364595,-0.488685 -0.198702,0 -0.317236,0.133615 -0.369094,0.262731 -0.01905,0.0463 -0.02381,0.110861 -0.02381,0.175419 v 1.207294 h -0.719402 c 0,0 0.0093,-1.958975 0,-2.161911 h 0.719402 v 0.306123 c 0.09552,-0.147108 0.2667,-0.356923 0.648759,-0.356923 z"
       fill="#ffffff"
       id="path12" />
  </g>
</svg>
