<?xml version="1.0" encoding="UTF-8" standalone="no"?>
<svg
   xmlns:dc="http://purl.org/dc/elements/1.1/"
   xmlns:cc="http://creativecommons.org/ns#"
   xmlns:rdf="http://www.w3.org/1999/02/22-rdf-syntax-ns#"
   xmlns:svg="http://www.w3.org/2000/svg"
   xmlns="http://www.w3.org/2000/svg"
   xmlns:sodipodi="http://sodipodi.sourceforge.net/DTD/sodipodi-0.dtd"
   xmlns:inkscape="http://www.inkscape.org/namespaces/inkscape"
   inkscape:version="1.0 (4035a4fb49, 2020-05-01)"
   sodipodi:docname="Default.svg"
   id="svg18"
   version="1.1"
   fill="none"
   viewBox="0 0 24 23.999985"
   height="23.999985"
   width="24">
  <metadata
     id="metadata22">
    <rdf:RDF>
      <cc:Work
         rdf:about="">
        <dc:format>image/svg+xml</dc:format>
        <dc:type
           rdf:resource="http://purl.org/dc/dcmitype/StillImage" />
      </cc:Work>
    </rdf:RDF>
  </metadata>
  <sodipodi:namedview
     inkscape:current-layer="svg18"
     inkscape:window-maximized="1"
     inkscape:window-y="-8"
     inkscape:window-x="-8"
     inkscape:cy="14.396484"
     inkscape:cx="33.5"
     inkscape:zoom="19.61194"
     showgrid="false"
     id="namedview20"
     inkscape:window-height="1027"
     inkscape:window-width="1920"
     inkscape:pageshadow="2"
     inkscape:pageopacity="0"
     guidetolerance="10"
     gridtolerance="10"
     objecttolerance="10"
     borderopacity="1"
     bordercolor="#666666"
     pagecolor="#ffffff" />
  <path
     style="fill:url(#paint0_linear)"
     id="path4"
     fill="url(#paint0_linear)"
     d="m 0,11.999984 c 0,6.6274 5.37258,12 12,12 6.6274,0 12,-5.3726 12,-12 C 24,5.372584 18.6274,0 12,0 5.37258,0 0,5.372584 0,11.999984 Z m 21.6,0 c 0,5.3019 -4.2981,9.6 -9.6,9.6 -5.30193,0 -9.6,-4.2981 -9.6,-9.6 0,-5.30192 4.29807,-9.59998 9.6,-9.59998 5.3019,0 9.6,4.29806 9.6,9.59998 z"
     clip-rule="evenodd"
     fill-rule="evenodd" />
  <mask
     height="25"
     width="24"
     y="0"
     x="0"
     maskUnits="userSpaceOnUse"
     mask-type="alpha"
     id="mask0">
    <path
       id="path6"
       fill="#ffffff"
       d="m 0,12.6035 c 0,6.6274 5.37258,12 12,12 6.6274,0 12,-5.3726 12,-12 C 24,5.9761 18.6274,0.603516 12,0.603516 5.37258,0.603516 0,5.9761 0,12.6035 Z m 21.6,0 c 0,5.3019 -4.2981,9.6 -9.6,9.6 -5.30193,0 -9.6,-4.2981 -9.6,-9.6 0,-5.30192 4.29807,-9.59998 9.6,-9.59998 5.3019,0 9.6,4.29806 9.6,9.59998 z"
       clip-rule="evenodd"
       fill-rule="evenodd" />
  </mask>
  <g
     transform="translate(0,-0.603516)"
     id="g9"
     mask="url(#mask0)" />
  <defs
     id="defs16">
    <linearGradient
       gradientTransform="translate(0,-0.603516)"
       gradientUnits="userSpaceOnUse"
       y2="11.6435"
       x2="24"
       y1="11.6435"
       x1="-3.14283e-07"
       id="paint0_linear">
      <stop
         id="stop11"
         stop-color="#FF1500" />
      <stop
         id="stop13"
         stop-color="#FE7000"
         offset="1" />
    </linearGradient>
  </defs>
</svg>
