<svg width="24" height="23" viewBox="0 0 24 23" fill="none" xmlns="http://www.w3.org/2000/svg">
<path fill-rule="evenodd" clip-rule="evenodd" d="M15.9789 13.6056L13.6275 12.2315L13.2782 12.4337L13.0175 12.5867L12.6411 12.8038L11.5835 13.4206L11.0915 13.7117L11.003 13.7635L2.48268 18.6975V16.3415L0.118934 17.7107V22.7903L1.88744 21.7689L10.5996 16.719L11.0915 16.4328L11.5835 16.1441L13.9349 14.7823L15.6222 13.7955L15.9691 13.5957L15.9789 13.6056ZM20.699 18.6926L16.2987 16.1441L13.9448 17.5084L21.2942 21.764L23.0628 22.7853V6.78428L22.4724 6.44383L17.3268 3.46367L12.1836 0.485982L11.5835 0.143066L10.9931 0.485982L5.84751 3.46367L0.704337 6.44383L0.114014 6.78428V14.9748L2.47776 13.608L7.03061 10.9708L11.5835 8.33356L13.1552 9.24389L15.974 10.8771L18.3279 12.2389L20.6892 13.608V18.6926H20.699ZM5.85735 8.92565L2.48268 10.8771V8.14607L7.03553 5.5113L11.5835 2.87405L16.1363 5.5113L20.6892 8.14607V10.8771L17.317 8.92565L12.1738 5.94549L11.5835 5.60257L10.9931 5.94549L5.85735 8.92565Z" fill="white"/>
</svg>
