<svg width="87" height="19" viewBox="0 0 87 19" fill="none" xmlns="http://www.w3.org/2000/svg">
<path fill-rule="evenodd" clip-rule="evenodd" d="M10.7392 18.3367L0.897466 0.91424L0.710571 0.584839H3.78438L3.84801 0.699934L12.4133 15.8563H12.9899L21.3405 0.699934L21.4041 0.584839H24.5057L24.3228 0.91424L14.7157 18.3328L14.6521 18.4479H10.8068L10.7432 18.3367H10.7392ZM36.0892 15.2531C36.1575 14.9934 36.1988 14.7275 36.2125 14.4593L36.2323 14.2569H38.6779V14.4871C38.6381 16.019 38.1609 17.0509 37.0356 17.7057C35.9103 18.3606 34.2521 18.5947 31.7628 18.5947C30.1681 18.6281 28.5731 18.5432 26.991 18.3407C26.0946 18.2552 25.2356 17.9393 24.4978 17.424C23.8503 16.9 23.3741 16.1953 23.1299 15.3999C22.8093 14.3729 22.6588 13.3004 22.6845 12.225C22.6376 10.9931 22.8307 9.76393 23.2532 8.60555C23.595 7.71714 24.2418 6.97876 25.0784 6.52199C25.6983 6.20212 26.3726 6.00025 27.0666 5.92669C28.1992 5.799 29.3388 5.74464 30.4784 5.76397C32.5859 5.76397 34.0095 5.85128 35.0513 6.09734C35.9573 6.27389 36.7801 6.74236 37.3935 7.43081C37.8805 7.98313 38.2197 8.64934 38.3796 9.36753C38.5926 10.4349 38.6925 11.5217 38.6779 12.6099V12.8203H25.2016C25.2165 13.3712 25.2953 13.9186 25.4362 14.4514C25.5351 14.8612 25.7362 15.2393 26.0208 15.5507C26.4701 15.9598 27.0414 16.2107 27.6472 16.2651C28.9359 16.4374 30.2364 16.5064 31.5361 16.4715C32.5313 16.5028 33.5272 16.4404 34.5105 16.2849C35.0074 16.2242 35.468 15.9943 35.8148 15.6341C35.9333 15.5265 36.0211 15.3896 36.0693 15.2372L36.0892 15.2531ZM26.3628 8.50633C25.6828 8.92304 25.3925 9.62946 25.2772 10.7566H36.129C36.0852 9.64534 35.7989 8.93891 35.0474 8.51823C34.2004 8.04596 32.7609 7.88721 30.4466 7.88721C28.3947 7.88721 27.1262 8.03802 26.3628 8.50633ZM39.6362 14.6617V13.8125H42.1096V14.0188L42.1334 14.3601C42.1334 15.3563 42.205 15.8881 42.8611 16.15C43.6047 16.4477 45.0522 16.4834 47.7442 16.4834C48.8945 16.5066 50.0452 16.4708 51.1918 16.3762C51.6469 16.3703 52.0904 16.2324 52.4683 15.9794C52.6152 15.8641 52.7291 15.7121 52.7983 15.5388C52.8753 15.3169 52.9117 15.083 52.9057 14.8483C52.9057 14.2133 52.7387 13.8005 52.3211 13.5505C51.9036 13.3005 51.0884 13.1775 49.9154 13.1894H48.6827L44.3682 13.1417C42.7219 13.1179 41.5847 12.8758 40.8808 12.3163C40.177 11.7567 39.831 10.8677 39.831 9.57787C39.8154 8.97308 39.9307 8.37205 40.1691 7.81578C40.3946 7.32099 40.7558 6.89998 41.2109 6.60136C41.8887 6.24026 42.6354 6.02655 43.4019 5.97431C44.7806 5.82647 46.167 5.76285 47.5534 5.78381C49.0786 5.73541 50.6046 5.84714 52.1064 6.11718C52.9849 6.25129 53.7832 6.70334 54.3491 7.38716C54.5823 7.65641 54.7474 7.97762 54.8303 8.32377C54.9283 8.84692 54.967 9.37944 54.9456 9.91124V10.1375H52.4921V9.91124C52.5049 9.6067 52.4822 9.30172 52.4245 9.00241C52.3951 8.84872 52.3154 8.70913 52.1979 8.60555C51.9712 8.36742 51.5219 8.20868 50.7862 8.08565C49.7022 7.95066 48.6098 7.89362 47.5176 7.91499C46.4553 7.90264 45.3932 7.95034 44.3364 8.05787C43.8117 8.07517 43.2979 8.21085 42.8333 8.45473C42.6697 8.59535 42.5429 8.77365 42.4639 8.9742C42.3849 9.17475 42.3561 9.39148 42.38 9.60565C42.38 10.1732 42.5231 10.5224 42.9605 10.7169C43.4656 10.9391 44.3404 11.0026 45.7441 10.9748C46.1179 10.9748 47.0483 10.9748 48.0743 10.9748C49.299 10.9947 50.651 11.0304 51.331 11.0622C52.7745 11.1138 53.7924 11.4193 54.4605 12.0265C55.1285 12.6338 55.4427 13.5545 55.4427 14.8046C55.468 15.4608 55.3414 16.114 55.0728 16.7136C54.8131 17.2276 54.3949 17.6449 53.8799 17.9042C53.2036 18.2135 52.4754 18.3939 51.7326 18.436C50.7465 18.5391 49.4382 18.5868 47.7045 18.5868C46.1749 18.6174 44.645 18.5524 43.1236 18.3923C42.3234 18.3437 41.5495 18.0894 40.8769 17.6541C40.4459 17.3632 40.1143 16.9478 39.9265 16.4635C39.7251 15.8726 39.6347 15.2497 39.6601 14.626L39.6362 14.6617ZM58.6795 5.93065V2.89858H61.0375V5.90287H69.5114V7.9904H61.0296V12.9909V13.0147C61.0813 15.2015 61.0853 15.2848 61.4272 15.7174C61.6831 16.0101 62.0282 16.2109 62.4094 16.2889C63.0794 16.4327 63.7645 16.494 64.4494 16.4715C65.0544 16.4997 65.6605 16.445 66.2507 16.3087C66.58 16.2308 66.8656 16.027 67.046 15.7412C67.184 15.5266 67.2723 15.2839 67.3045 15.0308C67.3646 14.5185 67.3885 14.0027 67.376 13.487V12.5068H69.7301V13.487C69.749 14.2122 69.7011 14.9375 69.5869 15.6539C69.5038 16.138 69.3166 16.5983 69.0382 17.0033C68.6345 17.6039 68.0298 18.0414 67.3323 18.2375C66.3382 18.5092 65.3084 18.6283 64.2784 18.5907C63.2319 18.6225 62.1859 18.5131 61.1688 18.2653C60.4723 18.103 59.8531 17.7064 59.4151 17.1422C59.1244 16.744 58.9273 16.2855 58.8386 15.8008C58.7207 15.0808 58.6714 14.3512 58.6914 13.622V8.00627H55.6733V5.91875H58.6556L58.6795 5.93065ZM75.0228 5.93065C76.0971 5.80749 77.1784 5.75446 78.2596 5.77191C79.7083 5.74253 81.1574 5.80616 82.598 5.9624C83.3873 6.03012 84.1518 6.27136 84.8367 6.66883C85.6049 7.15455 86.1907 7.8801 86.5029 8.73254C86.8788 9.84211 87.0486 11.0109 87.0039 12.1813C87.0513 13.3947 86.8706 14.6062 86.471 15.7531C86.1484 16.6215 85.5287 17.3482 84.7214 17.8049C84.0827 18.153 83.3813 18.3715 82.6576 18.4479C81.4831 18.5841 80.3007 18.6412 79.1186 18.6185C77.7731 18.6458 76.4273 18.5822 75.0904 18.428C74.3062 18.3499 73.5467 18.1107 72.8596 17.7256C72.0547 17.2781 71.4359 16.5591 71.1139 15.6976C70.7255 14.5484 70.5529 13.3375 70.6049 12.1258C70.559 10.9082 70.7577 9.69368 71.1895 8.55395C71.545 7.66628 72.2063 6.93445 73.0544 6.49024C73.672 6.18621 74.3382 5.99277 75.0228 5.91875V5.93065ZM81.4448 7.99436C80.733 7.92293 79.7985 7.88721 78.5698 7.88721C76.2038 7.88721 74.816 8.0539 74.0446 8.68095C73.2731 9.308 73.0942 10.3915 73.0942 12.2528C73.0942 13.4751 73.2095 14.3403 73.4918 14.9475C73.6222 15.2267 73.8104 15.4751 74.0442 15.6763C74.278 15.8774 74.5519 16.0267 74.8478 16.1143C75.3344 16.2726 75.8398 16.366 76.3509 16.3921C77.0031 16.4516 77.8501 16.4754 78.9714 16.4754C79.9974 16.5014 81.0238 16.447 82.0412 16.3127C82.5753 16.2522 83.0848 16.0554 83.5205 15.7412C83.8991 15.4205 84.1663 14.9885 84.284 14.507C84.4753 13.7216 84.5583 12.9137 84.5305 12.1059C84.5774 11.2256 84.4545 10.3445 84.1686 9.5104C84.0608 9.24173 83.8995 8.99768 83.6945 8.79303C83.4894 8.58838 83.2449 8.42739 82.9757 8.3198C82.4879 8.12158 81.9706 8.00492 81.4448 7.97452V7.99436Z" fill="white"/>
</svg>
