<svg width="38" height="37" viewBox="0 0 38 37" fill="none" xmlns="http://www.w3.org/2000/svg">
<path fill-rule="evenodd" clip-rule="evenodd" d="M25.8327 21.8872L22.0312 19.6766L21.4666 20.0021L21.0451 20.2481L20.4367 20.5974L18.7268 21.5895L17.9315 22.0578L17.7883 22.1412L4.01385 30.0785V26.2885L0.192464 28.4911V36.6626L3.05155 35.0196L17.1362 26.8957L17.9315 26.4353L18.7268 25.971L22.5283 23.7802L25.2561 22.1928L25.8168 21.8713L25.8327 21.8872ZM33.4636 30.0706L26.3497 25.971L22.5442 28.1656L34.4259 35.0116L37.285 36.6546V10.9138L36.3306 10.3661L28.0118 5.57194L19.697 0.781749L18.7268 0.230103L17.7724 0.781749L9.45366 5.57194L1.13887 10.3661L0.184509 10.9138V24.0898L4.0059 21.8912L11.3663 17.6486L18.7268 13.4061L21.2678 14.8706L25.8248 17.4978L29.6303 19.6885L33.4477 21.8912V30.0706H33.4636ZM9.46957 14.3586L4.01385 17.4978V13.1045L11.3743 8.86595L18.7268 4.62343L26.0872 8.86595L33.4477 13.1045V17.4978L27.9959 14.3586L19.6811 9.56444L18.7268 9.01279L17.7724 9.56444L9.46957 14.3586Z" fill="url(#paint0_linear)"/>
<defs>
<linearGradient id="paint0_linear" x1="0.184509" y1="16.989" x2="37.285" y2="16.989" gradientUnits="userSpaceOnUse">
<stop stop-color="#FF1500"/>
<stop offset="1" stop-color="#FE7000"/>
</linearGradient>
</defs>
</svg>
