<svg width="58" height="22" viewBox="0 0 58 22" fill="none" xmlns="http://www.w3.org/2000/svg">
<path fill-rule="evenodd" clip-rule="evenodd" d="M21.0634 17.4481H23.6561L13.7945 0.0374756H10.0804L0.194946 17.4481H2.83531L4.8991 13.7691H18.9997L21.0634 17.4481ZM17.9022 11.7332H6.02444L11.5199 2.07341H12.4663L17.9101 11.7332H17.9022ZM24.4395 21.8097H26.3482V16.0154H26.4516C27.3701 17.2655 28.5193 17.6029 32.0186 17.6029C35.3429 17.6029 36.9097 17.3925 37.9038 16.8091C39.4745 15.8924 40.1545 14.2493 40.1545 11.4038C40.1545 8.55823 39.5779 7.01839 38.1145 6.10559C37.017 5.39917 35.6292 5.19279 32.2294 5.19279C28.412 5.19279 27.3105 5.50235 26.4476 6.9152H26.3442V5.32773H24.4355V21.7739L24.4395 21.8097ZM32.6787 6.87551C37.2556 6.87551 38.1185 7.60972 38.1185 11.4474C38.1185 13.5072 37.7765 14.5787 36.9256 15.2058C36.17 15.7534 34.9373 15.936 31.9828 15.936C27.1713 15.936 26.3084 15.2296 26.3084 11.2887C26.3084 9.28053 26.6464 8.23677 27.5013 7.58194C28.237 7.06204 29.5174 6.87551 32.6708 6.87551H32.6787ZM41.9916 21.8097H43.9003V16.0154H44.0037C44.9183 17.2655 46.0714 17.6029 49.5707 17.6029C52.8911 17.6029 54.4618 17.3925 55.4559 16.8091C57.0266 15.8924 57.7066 14.2493 57.7066 11.4038C57.7066 8.55823 57.13 7.01839 55.6667 6.10559C54.5652 5.39917 53.1814 5.19279 49.7815 5.19279C45.9601 5.19279 44.8626 5.50235 43.9997 6.9152H43.8963V5.32773H41.9876V21.7739L41.9916 21.8097ZM50.2428 6.87551C54.8237 6.87551 55.6866 7.60972 55.6866 11.4474C55.6866 13.5072 55.3446 14.5787 54.4936 15.2058C53.7341 15.7534 52.5054 15.936 49.5509 15.936C44.7393 15.936 43.8725 15.2296 43.8725 11.2887C43.8725 9.28053 44.2144 8.23677 45.0654 7.58194C45.7971 7.06204 47.0815 6.87551 50.2348 6.87551H50.2428Z" fill="white"/>
</svg>
